<!--?xml version="1.0" standalone="no"?-->
              <svg id="sw-js-blob-svg" viewBox="0 0 100 100" xmlns="http://www.w3.org/2000/svg" version="1.1">
                    <defs> 
                        <linearGradient id="sw-gradient" x1="0" x2="1" y1="1" y2="0">
                            <stop id="stop1" stop-color="rgba(104, 112, 250, 1)" offset="0%"></stop>
                            <stop id="stop2" stop-color="rgba(76, 206, 172, 1)" offset="100%"></stop>
                        </linearGradient>
                    </defs>
                <path fill="none" d="M21.5,-38.3C27.5,-33.7,32,-27.4,36.3,-20.7C40.6,-14,44.6,-7,45.4,0.5C46.2,7.9,43.7,15.9,38.9,21.5C34,27.2,26.8,30.5,19.9,34.6C13,38.7,6.5,43.6,-0.7,44.9C-8,46.2,-16,43.9,-22.9,39.8C-29.8,35.7,-35.5,29.8,-38.9,22.8C-42.2,15.9,-43.1,7.9,-43.4,-0.2C-43.7,-8.3,-43.4,-16.6,-39.5,-22.4C-35.5,-28.2,-27.8,-31.5,-20.6,-35.5C-13.4,-39.5,-6.7,-44.3,0.5,-45.2C7.7,-46.1,15.4,-43,21.5,-38.3Z" width="100%" height="100%" transform="translate(50 50)" stroke-width="1" style="transition: all 0.3s ease 0s;" stroke="url(#sw-gradient)"></path>
              </svg>