<svg
            xmlns="http://www.w3.org/2000/svg"
            version="1.1"
            width="1000"
            height="275"
            viewBox="0 0 1000 275"
          >
            <g transform="matrix(1,0,0,1,-0.6060606060606233,0.24012263150621038)">
              <svg
                viewBox="0 0 396 109"
                data-background-color="#ffffff"
                preserveAspectRatio="xMidYMid meet"
                height="275"
                width="1000"
                xmlns="http://www.w3.org/2000/svg"
              >
                <g
                  id="tight-bounds"
                  transform="matrix(1,0,0,1,0.2400000000000091,-0.09517587939700434)"
                >
                  <svg
                    viewBox="0 0 395.52 109.19035175879398"
                    height="109.19035175879398"
                    width="395.52"
                  >
                    <g>
                      <svg
                        viewBox="0 0 395.52 109.19035175879398"
                        height="109.19035175879398"
                        width="395.52"
                      >
                        <g>
                          <svg
                            viewBox="0 0 395.52 109.19035175879398"
                            height="109.19035175879398"
                            width="395.52"
                          >
                            <g id="textblocktransform">
                              <svg
                                viewBox="0 0 395.52 109.19035175879398"
                                height="109.19035175879398"
                                width="395.52"
                                id="textblock"
                              >
                                <g>
                                  <svg
                                    viewBox="0 0 395.52 109.19035175879398"
                                    height="109.19035175879398"
                                    width="395.52"
                                  >
                                    <g transform="matrix(1,0,0,1,0,0)">
                                      <svg
                                        width="395.52"
                                        viewBox="2.25 -37.25 159.19000244140625 43.95000076293945"
                                        height="109.19035175879398"
                                        data-palette-color="#4cceac"
                                      >
                                        <path
                                          d="M15.15-17.7L15.15-4.5 14.65-4.5 14.65-31.5 15.15-31.5 15.15-18.2 26-18.2 31.75-31.5 32.3-31.5 26.55-18.2 28.6-18.2Q31.65-18.2 33.15-17.05 34.65-15.9 34.65-13.3L34.65-13.3 34.65-4.5 34.15-4.5 34.15-13.3Q34.15-15.7 32.75-16.7 31.35-17.7 28.6-17.7L28.6-17.7 15.15-17.7ZM11 0L18.75 0Q19.7 0 20.13-0.43 20.55-0.85 20.55-1.8L20.55-1.8 20.55-13.25 27.15-13.25Q27.95-13.25 28.35-12.8 28.75-12.35 28.75-11.55L28.75-11.55 28.75-1.8Q28.75-0.85 29.18-0.43 29.6 0 30.55 0L30.55 0 38.25 0Q39.2 0 39.63-0.43 40.05-0.85 40.05-1.8L40.05-1.8 40.05-15.9Q40.05-18.9 38.38-20.73 36.7-22.55 33.9-22.7L33.9-22.7 39-34.35Q39.35-35.15 39.05-35.58 38.75-36 37.9-36L37.9-36 30.2-36Q29.25-36 28.65-35.63 28.05-35.25 27.7-34.35L27.7-34.35 22.55-22.7 20.55-22.7 20.55-34.2Q20.55-35.15 20.13-35.58 19.7-36 18.75-36L18.75-36 11-36Q10.05-36 9.63-35.58 9.2-35.15 9.2-34.2L9.2-34.2 9.2-1.8Q9.2-0.85 9.63-0.43 10.05 0 11 0L11 0ZM20.35 0.05L20.35 0.05 13.85 5.45Q13.65 5.65 13.23 5.8 12.8 5.95 12.3 5.95L12.3 5.95 4.55 5.95Q3.35 5.95 2.8 5.4 2.25 4.85 2.25 3.65L2.25 3.65 2.25-28.75Q2.25-29.4 2.43-29.85 2.6-30.3 2.95-30.6L2.95-30.6 9.4-36.05Q9.65-36.25 10.08-36.38 10.5-36.5 11-36.5L11-36.5 18.75-36.5Q19.95-36.5 20.5-35.95 21.05-35.4 21.05-34.2L21.05-34.2 21.05-29.65Q21.2-29.85 21.35-30.08 21.5-30.3 21.7-30.45L21.7-30.45 28.15-35.9Q28.5-36.2 29.03-36.35 29.55-36.5 30.2-36.5L30.2-36.5 37.9-36.5Q39.15-36.5 39.55-35.88 39.95-35.25 39.45-34.15L39.45-34.15 34.65-23.15Q37.35-22.8 38.95-20.85 40.55-18.9 40.55-15.9L40.55-15.9 40.55-1.8Q40.55-1.15 40.38-0.7 40.2-0.25 39.85 0.05L39.85 0.05 33.35 5.45Q33.15 5.65 32.73 5.8 32.3 5.95 31.8 5.95L31.8 5.95 24.1 5.95Q22.9 5.95 22.35 5.4 21.8 4.85 21.8 3.65L21.8 3.65 21.8-6.1Q21.8-6.6 21.6-6.9 21.4-7.2 21.05-7.25L21.05-7.25 21.05-1.8Q21.05-1.15 20.88-0.7 20.7-0.25 20.35 0.05ZM70.05 5.95L70.05 5.95 46.85 5.95Q45.65 5.95 45.1 5.4 44.55 4.85 44.55 3.65L44.55 3.65 44.55-28.75Q44.55-29.4 44.72-29.85 44.9-30.3 45.25-30.6L45.25-30.6 51.7-36.05Q51.95-36.25 52.37-36.38 52.8-36.5 53.3-36.5L53.3-36.5 76.5-36.5Q77.7-36.5 78.25-35.95 78.8-35.4 78.8-34.2L78.8-34.2 78.8-28.35Q78.8-27.7 78.62-27.25 78.45-26.8 78.1-26.5L78.1-26.5 73.8-22.95Q74.3-22.7 74.52-22.2 74.75-21.7 74.75-20.9L74.75-20.9 74.75-15.55Q74.75-14.9 74.57-14.45 74.4-14 74.05-13.7L74.05-13.7 69.6-9.95 76.5-9.95Q77.7-9.95 78.25-9.4 78.8-8.85 78.8-7.65L78.8-7.65 78.8-1.8Q78.8-1.15 78.62-0.7 78.45-0.25 78.1 0.05L78.1 0.05 71.6 5.45Q71.4 5.65 70.97 5.8 70.55 5.95 70.05 5.95ZM53.3 0L76.5 0Q77.45 0 77.87-0.43 78.3-0.85 78.3-1.8L78.3-1.8 78.3-7.65Q78.3-8.6 77.87-9.03 77.45-9.45 76.5-9.45L76.5-9.45 62.7-9.45 62.7-13.75 72.45-13.75Q73.4-13.75 73.82-14.18 74.25-14.6 74.25-15.55L74.25-15.55 74.25-20.9Q74.25-21.85 73.82-22.28 73.4-22.7 72.45-22.7L72.45-22.7 62.7-22.7 62.7-26.55 76.5-26.55Q77.45-26.55 77.87-26.98 78.3-27.4 78.3-28.35L78.3-28.35 78.3-34.2Q78.3-35.15 77.87-35.58 77.45-36 76.5-36L76.5-36 53.3-36Q52.35-36 51.92-35.58 51.5-35.15 51.5-34.2L51.5-34.2 51.5-1.8Q51.5-0.85 51.92-0.43 52.35 0 53.3 0L53.3 0ZM57.45-5L73.8-5 73.8-4.5 56.95-4.5 56.95-31.5 73.8-31.5 73.8-31 57.45-31 57.45-18.45 69.75-18.45 69.75-17.95 57.45-17.95 57.45-5ZM103.75 5.95L84.55 5.95Q83.34 5.95 82.8 5.4 82.25 4.85 82.25 3.65L82.25 3.65 82.25-28.75Q82.25-29.4 82.42-29.85 82.59-30.3 82.95-30.6L82.95-30.6 89.4-36.05Q89.65-36.25 90.07-36.38 90.5-36.5 91-36.5L91-36.5 106.95-36.5Q112.15-36.5 114.59-34.48 117.05-32.45 117.05-28.35L117.05-28.35 117.05-25.95Q117.05-24.2 116.57-22.95 116.09-21.7 115.15-20.95L115.15-20.95 115-20.85Q117.7-20.25 119.05-18.28 120.4-16.3 120.4-12.8L120.4-12.8 120.4-8.2Q120.4-5.95 119.75-4.33 119.09-2.7 117.8-1.6L117.8-1.6 111.34 3.85Q110.09 4.9 108.2 5.43 106.3 5.95 103.75 5.95L103.75 5.95ZM91 0L110.2 0Q115.15 0 117.52-2 119.9-4 119.9-8.2L119.9-8.2 119.9-12.8Q119.9-16.45 118.34-18.35 116.8-20.25 113.59-20.55L113.59-20.55Q115.09-21.2 115.82-22.53 116.55-23.85 116.55-25.95L116.55-25.95 116.55-28.35Q116.55-32.25 114.2-34.13 111.84-36 106.95-36L106.95-36 91-36Q90.05-36 89.62-35.58 89.2-35.15 89.2-34.2L89.2-34.2 89.2-1.8Q89.2-0.85 89.62-0.43 90.05 0 91 0L91 0ZM108.2-4.5L108.2-4.5 94.75-4.5 94.75-31.5 104.9-31.5Q106.95-31.5 108.25-31.08 109.55-30.65 110.25-29.93 110.95-29.2 111.2-28.25 111.45-27.3 111.45-26.2L111.45-26.2 111.45-23Q111.45-21.5 110.92-20.25 110.4-19 108.25-18.45L108.25-18.45Q110.3-18.45 111.59-18.03 112.9-17.6 113.59-16.82 114.3-16.05 114.52-15 114.75-13.95 114.75-12.7L114.75-12.7 114.75-9.5Q114.75-8.4 114.5-7.48 114.25-6.55 113.57-5.9 112.9-5.25 111.59-4.88 110.3-4.5 108.2-4.5ZM104.9-31L104.9-31 95.25-31 95.25-18.45 104.9-18.45Q106.95-18.45 108.15-18.82 109.34-19.2 109.97-19.83 110.59-20.45 110.77-21.28 110.95-22.1 110.95-23L110.95-23 110.95-26.2Q110.95-28.2 109.8-29.6 108.65-31 104.9-31ZM100.45-22.1L100.45-27.5 104.7-27.5Q105.65-27.5 106.12-27 106.59-26.5 106.59-25.5L106.59-25.5 106.59-24.1Q106.59-23.1 106.12-22.6 105.65-22.1 104.7-22.1L104.7-22.1 100.45-22.1ZM108.25-17.95L108.25-17.95 95.25-17.95 95.25-5 108.2-5Q111.95-5 113.09-6.23 114.25-7.45 114.25-9.5L114.25-9.5 114.25-12.7Q114.25-14.95 113.12-16.45 112-17.95 108.25-17.95ZM100.45-8.5L100.45-14.4 106.95-14.4Q107.9-14.4 108.37-13.93 108.84-13.45 108.84-12.45L108.84-12.45 108.84-10.5Q108.84-9.5 108.37-9 107.9-8.5 106.95-8.5L106.95-8.5 100.45-8.5ZM158.44-1.85L151.99 3.55Q150.24 5.05 147.09 5.88 143.94 6.7 138.99 6.7L138.99 6.7Q134.09 6.7 130.97 5.68 127.84 4.65 126.07 2.95 124.29 1.25 123.62-0.95 122.94-3.15 122.94-5.5L122.94-5.5 122.94-21.05Q122.94-23.35 123.59-25.33 124.24-27.3 125.94-28.7L125.94-28.7 132.44-34.1Q134.19-35.6 137.32-36.43 140.44-37.25 145.44-37.25L145.44-37.25Q150.34-37.25 153.47-36.45 156.59-35.65 158.37-34.23 160.14-32.8 160.79-30.83 161.44-28.85 161.44-26.5L161.44-26.5 161.44-9.45Q161.44-7.15 160.79-5.2 160.14-3.25 158.44-1.85L158.44-1.85ZM160.94-9.45L160.94-9.45 160.94-26.5Q160.94-28.8 160.27-30.68 159.59-32.55 157.87-33.9 156.14-35.25 153.12-36 150.09-36.75 145.44-36.75L145.44-36.75Q140.79-36.75 137.74-36 134.69-35.25 132.97-33.9 131.24-32.55 130.57-30.68 129.89-28.8 129.89-26.5L129.89-26.5 129.89-9.45Q129.89-7.15 130.57-5.28 131.24-3.4 132.97-2.08 134.69-0.75 137.74 0 140.79 0.75 145.44 0.75L145.44 0.75Q150.09 0.75 153.12 0 156.14-0.75 157.87-2.08 159.59-3.4 160.27-5.28 160.94-7.15 160.94-9.45ZM155.49-25.35L155.49-10.6Q155.49-7.6 153.34-5.73 151.19-3.85 145.34-3.85L145.34-3.85Q139.49-3.85 137.39-5.73 135.29-7.6 135.29-10.6L135.29-10.6 135.29-25.35Q135.29-28.35 137.39-30.23 139.49-32.1 145.34-32.1L145.34-32.1Q151.19-32.1 153.34-30.23 155.49-28.35 155.49-25.35L155.49-25.35ZM135.79-25.35L135.79-10.6Q135.79-7.8 137.79-6.08 139.79-4.35 145.34-4.35L145.34-4.35Q150.89-4.35 152.94-6.08 154.99-7.8 154.99-10.6L154.99-10.6 154.99-25.35Q154.99-28.15 152.94-29.88 150.89-31.6 145.34-31.6L145.34-31.6Q139.79-31.6 137.79-29.88 135.79-28.15 135.79-25.35L135.79-25.35ZM141.24-11.25L141.24-11.25 141.24-24.7Q141.24-25.65 141.99-26.33 142.74-27 145.44-27L145.44-27Q148.14-27 148.89-26.33 149.64-25.65 149.64-24.7L149.64-24.7 149.64-11.25Q149.64-10.25 148.89-9.58 148.14-8.9 145.44-8.9L145.44-8.9Q142.74-8.9 141.99-9.58 141.24-10.25 141.24-11.25ZM141.74-20.7L141.74-11.25Q141.74-10.75 141.94-10.38 142.14-10 142.69-9.75L142.69-9.75 142.69-19.25Q142.69-19.75 142.49-20.13 142.29-20.5 141.74-20.7L141.74-20.7Z"
                                          opacity="1"
                                          transform="matrix(1,0,0,1,0,0)"
                                          fill="#4cceac"
                                          class="undefined-text-0"
                                          data-fill-palette-color="primary"
                                          id="text-0"
                                        ></path>
                                      </svg>
                                    </g>
                                  </svg>
                                </g>
                              </svg>
                            </g>
                          </svg>
                        </g>
                      </svg>
                    </g>
                    <defs></defs>
                  </svg>
                  <rect
                    width="395.52"
                    height="109.19035175879398"
                    fill="none"
                    stroke="none"
                    visibility="hidden"
                  ></rect>
                </g>
              </svg>
            </g>
          </svg>